
									<svg width="49" height="71" viewBox="0 0 49 71" fill="none" xmlns="http://www.w3.org/2000/svg"><path d="M27.0711 68.4141L27.0676 68.4127C24.9937 67.6012 23.3126 66.5871 21.9742 65.3768L25.0078 60.9303C25.9437 61.8644 27.0984 62.5996 28.4259 63.1748L28.4259 63.1748L28.4314 63.1771C30.024 63.845 31.6302 64.21 33.2962 64.21C35.9505 64.21 38.2187 63.3211 39.9611 61.5787C41.7044 59.8354 42.5923 57.5667 42.5923 54.8641C42.5923 51.9335 41.7672 49.522 40.1309 47.6746C38.4746 45.8045 36.088 44.8722 33.0974 44.8722C31.5153 44.8722 29.9724 45.0762 28.5238 45.5415C27.2652 45.9323 26.0114 46.4691 24.7018 47.1797V38.0172V37.5172H24.2018H0.5V32.9009L0.611077 32.7342L0.614809 32.7287L22.7258 0.5H27.8349L6.29406 32.5201L5.76995 33.2992H6.70893H24.1521H24.6521V32.7992V24.3043H45.6177V29.8144H30.0162H29.5162V30.3144V40.3032V40.9333L30.1298 40.7902C31.5867 40.4502 33.0891 40.2566 34.6876 40.2566C37.6407 40.2566 40.1294 40.9336 42.1743 42.2176L42.1787 42.2203C44.2814 43.5106 45.8093 45.2275 46.9128 47.4346L46.9149 47.4387C47.9659 49.4929 48.5 51.9466 48.5 54.6653C48.5 57.4697 47.8724 60.0179 46.5764 62.3218C45.2767 64.6323 43.5483 66.4085 41.3354 67.7555C39.1388 69.0925 36.6473 69.7201 33.8428 69.7201C31.521 69.7201 29.2483 69.285 27.0711 68.4141Z" fill="#121212" stroke="black"></path></svg>
