
<svg width="49" height="71" viewBox="0 0 49 71" fill="none" xmlns="http://www.w3.org/2000/svg"><g opacity="0.8"><path d="M49 54.6653C49 57.5477 48.354 60.1816 47.0122 62.5669C45.6704 64.9523 43.8813 66.7911 41.5953 68.1826C39.3093 69.5741 36.7252 70.2201 33.8428 70.2201C31.4574 70.2201 29.1217 69.7728 26.8854 68.8783C24.5994 67.9838 22.7606 66.8408 21.3195 65.4493L24.9473 60.1319C25.8915 61.2252 27.1339 62.07 28.6247 62.716C30.1653 63.3621 31.7059 63.71 33.2962 63.71C35.8306 63.71 37.9675 62.8651 39.6075 61.2252C41.2475 59.5852 42.0923 57.4483 42.0923 54.8641C42.0923 52.0314 41.2972 49.7454 39.7566 48.0061C38.216 46.2667 35.9797 45.3722 33.0974 45.3722C31.5568 45.3722 30.0659 45.571 28.6744 46.0183C27.2333 46.4655 25.7921 47.1116 24.2515 48.0061H24.2018V38.0172H0V32.7495L0.19878 32.4513L22.4625 0H28.7738L6.70893 32.7992H24.1521V23.8043H46.1177V30.3144H30.0162V40.3032C31.5071 39.9554 33.0477 39.7566 34.6876 39.7566C37.7191 39.7566 40.3032 40.4523 42.4402 41.7941C44.6268 43.1359 46.217 44.925 47.36 47.211C48.4534 49.3479 49 51.8824 49 54.6653Z" fill="white"></path></g></svg>
